<svg id="Layer_1" xmlns="http://www.w3.org/2000/svg" viewBox="0 0 432 144"><defs><style>.cls-1{fill:#4ADE80;}.cls-2{fill:#ffffff;}.cls-3{fill:#4ADE80;}</style></defs><path class="cls-2" d="M1.44,17.38h32.93c16.07,0,25.18,7.31,25.18,20.79s-11.58,16.52-11.58,16.52v.34s16.07,2.14,16.07,19.11c0,14.61-10.12,21.92-28.89,21.92H1.44V17.38ZM34.26,52.23c10.68,0,17.65-4.16,17.65-14.05s-6.74-14.05-17.65-14.05H8.86v28.1h25.4ZM35.16,89.32c13.49,0,21.24-4.72,21.24-15.17,0-9.55-6.41-15.17-21.24-15.17H8.86v30.35h26.3Z"/><path class="cls-2" d="M100.3,17.38h10.23l32.26,78.68h-7.76l-7.76-18.88h-43.73l-7.76,18.88h-7.76L100.3,17.38ZM124.47,70.44l-18.88-46.54h-.34l-18.88,46.54h38.11Z"/><path class="cls-2" d="M249.27,23.65h-29.34v-6.74h66.09v6.74h-29.34v71.94h-7.42V23.65Z"/><path class="cls-2" d="M296.59,16.91h56.77v6.74h-49.35v28.21h42.94v6.74h-42.94v30.24h49.35v6.74h-56.77V16.91Z"/><path class="cls-2" d="M366.37,16.91h31.36c17.2,0,27.2,8.99,27.2,23.83,0,18.32-15.62,22.48-17.2,22.48l21.02,32.37h-8.43l-20.46-31.02h-26.08v31.02h-7.42V16.91ZM397.73,57.82c12.14,0,19.56-6.29,19.56-17.09s-7.42-17.09-19.56-17.09h-23.94v34.17h23.94Z"/><polygon class="cls-1" points="180.68 61.38 181.02 61.38 205.8 96.06 214.35 96.06 187.5 58.48 174.2 58.48 147.35 96.06 155.89 96.06 180.68 61.38"/><polygon class="cls-3" points="181.02 48.83 180.68 48.83 158.46 17.38 149.68 17.38 174.15 51.73 187.55 51.73 212.02 17.38 203.23 17.38 181.02 48.83"/><path class="cls-3" d="M294.84,127.36c1.43-.74,1.76-1.04,1.76-3.28v-6.07c0-2.5-.24-2.98-1.76-3.93v-.21c2.08-.12,4.17-.51,6.28-1.13v3.19c1.28-2.06,2.98-3.13,4.97-3.13s3.63,1.28,4.14,3.25c1.28-2.11,3.04-3.25,5.03-3.25,2.53,0,4.29,1.88,4.29,4.61v6.67c0,2.23.33,2.53,1.76,3.28v.21h-8.13v-.21c1.61-.83,1.76-1.16,1.82-3.28.03-1.31.03-5.45.03-6.16,0-1.76-.77-2.77-2.08-2.77-1.04,0-1.88.66-2.59,1.82.03.15.03.3.03.45v6.67c0,2.23.33,2.53,1.73,3.28v.21h-8.1v-.21c1.43-.74,1.76-1.04,1.82-3.28.03-1.22.03-5.63.03-6.16,0-1.76-.77-2.77-2.05-2.77-1.01,0-1.88.63-2.59,1.82v7.12c0,2.23.3,2.53,1.7,3.28v.21h-8.07v-.21Z"/><path class="cls-3" d="M322.9,120.51c0-4.94,3.27-7.71,7.71-7.71s7.65,2.53,7.65,7.41-3.25,7.65-7.71,7.65-7.65-2.5-7.65-7.36ZM333.56,122.83c0-3.01-1.13-9.23-3.69-9.23-1.16,0-2.26,1.28-2.26,4.26s1.13,9.23,3.72,9.23c1.19,0,2.23-1.37,2.23-4.26Z"/><path class="cls-3" d="M340.12,127.36c1.43-.74,1.76-1.04,1.76-3.28v-6.31c0-2.23-.27-2.8-1.76-3.69v-.21c2.11-.12,4.26-.54,6.28-1.13l-.06,2.92.06.03c.63-1.73,2.14-2.89,4.35-2.89h1.1l-.6,4.88h-.21c-1.16-1.34-2.35-2.17-3.16-2.17-.62,0-1.1.45-1.4,1.07v7.5c0,2.23.42,2.53,2.26,3.28v.21h-8.63v-.21Z"/><path class="cls-3" d="M355.9,123.72v-9.62h-1.4v-.45c1.7-.86,4.53-2.86,5.63-4.59h.33v4.11h3.63l-.15.92h-3.42l-.09,8.9c0,1.97.83,2.71,2.02,2.71.66,0,1.28-.24,1.99-.98l.15.15c-.86,1.49-2.35,2.98-4.73,2.98-2.11,0-3.96-1.28-3.96-4.14Z"/><path class="cls-3" d="M366.54,130.72c0-1.52,2.14-2.41,3.96-2.8-2.11-.54-3.1-1.52-3.1-2.65,0-1.49,1.52-2.65,3.6-3.13-2.38-.57-3.96-2-3.96-4.5,0-3.27,2.74-4.85,6.07-4.85h1.73c2.2,0,3.07-1.01,3.22-2.29l3.36.71v.12c-.57,1.46-1.55,2.09-3.99,2.09h-1.85v.15c2.86.54,4.53,1.79,4.53,4.29,0,2.98-2.41,4.56-6.52,4.56-.57,0-1.1-.03-1.64-.09-.8.15-1.25.54-1.25.95,0,.36.33.54.71.63.69.18,4.97.98,6.28,1.31,2.44.6,3.96,1.76,3.96,3.84,0,3.66-4.73,4.7-8.07,4.7s-7.06-1.01-7.06-3.04ZM378.07,130.9c0-.83-.71-1.52-2.02-1.85-.69-.18-3.66-.74-4.79-.95-.71.42-1.49,1.22-1.49,2.32,0,1.76,1.97,2.56,4.26,2.56,2.05,0,4.05-.66,4.05-2.08ZM375.92,119.02c0-1.94-.83-5.54-2.74-5.54-.95,0-1.79.89-1.79,2.83s.74,5.45,2.77,5.45c.95,0,1.76-.83,1.76-2.74Z"/><path class="cls-3" d="M392.21,124.7h-.03c-1.04,1.91-3.13,3.13-5.24,3.13-2.32,0-3.96-1.4-3.96-3.45,0-2.74,2.89-4.73,9.29-6.4l.06-2.35c.03-1.34-.6-2.11-1.73-2.11-1.61,0-2.65,1.7-2.89,4.85l-.18.03-3.54-1.91c1.25-2.32,3.9-3.69,7.06-3.69,3.69,0,5.72,1.85,5.63,5.18l-.18,7.03c0,.57.27.98.74.98s.98-.45,1.31-1.19l.24.12c-.65,1.79-2.02,2.95-3.81,2.95s-2.8-1.16-2.77-3.16ZM392.12,123.81l.12-5.18c-3.01.92-4.47,2.32-4.47,4.38,0,1.4.68,2.26,1.82,2.26.83,0,1.79-.57,2.53-1.46Z"/><path class="cls-3" d="M400.24,130.72c0-1.52,2.14-2.41,3.96-2.8-2.11-.54-3.1-1.52-3.1-2.65,0-1.49,1.52-2.65,3.6-3.13-2.38-.57-3.96-2-3.96-4.5,0-3.27,2.74-4.85,6.07-4.85h1.73c2.2,0,3.07-1.01,3.22-2.29l3.37.71v.12c-.57,1.46-1.55,2.09-3.99,2.09h-1.85v.15c2.86.54,4.53,1.79,4.53,4.29,0,2.98-2.41,4.56-6.52,4.56-.57,0-1.1-.03-1.64-.09-.8.15-1.25.54-1.25.95,0,.36.33.54.71.63.68.18,4.97.98,6.28,1.31,2.44.6,3.96,1.76,3.96,3.84,0,3.66-4.73,4.7-8.07,4.7s-7.06-1.01-7.06-3.04ZM411.77,130.9c0-.83-.71-1.52-2.02-1.85-.68-.18-3.66-.74-4.79-.95-.71.42-1.49,1.22-1.49,2.32,0,1.76,1.96,2.56,4.26,2.56,2.06,0,4.05-.66,4.05-2.08ZM409.62,119.02c0-1.94-.83-5.54-2.74-5.54-.95,0-1.79.89-1.79,2.83s.74,5.45,2.77,5.45c.95,0,1.76-.83,1.76-2.74Z"/><path class="cls-3" d="M416.8,120.3c0-4.44,2.92-7.5,7.38-7.5,3.63,0,6.01,2.02,6.28,5.6l.03.36h-9.5v.45c0,3.45,2.05,5.54,5.03,5.54,2,0,3.51-.89,4.32-2.44l.21.12c-.74,3.42-3.16,5.45-6.58,5.45-4.17,0-7.18-3.07-7.18-7.56ZM426.27,117.92c-.21-2.74-1.25-4.29-2.65-4.29s-2.35,1.52-2.59,4.38l5.24-.09Z"/><rect class="cls-1" x="1.44" y="118.78" width="284.59" height="3.37"/></svg>